<svg width="28" height="28" viewBox="0 0 28 28" fill="none" xmlns="http://www.w3.org/2000/svg">
<path fill-rule="evenodd" clip-rule="evenodd" d="M3.5 14C3.5 19.1917 7.29167 23.5083 12.25 24.3833L12.3085 24.3365C12.289 24.3327 12.2695 24.3289 12.25 24.325V16.9167H9.625V14H12.25V11.6667C12.25 9.04167 13.9417 7.58333 16.3333 7.58333C17.0917 7.58333 17.9083 7.7 18.6667 7.81667V10.5H17.325C16.0417 10.5 15.75 11.1417 15.75 11.9583V14H18.55L18.0833 16.9167H15.75V24.325C15.7305 24.3289 15.711 24.3327 15.6915 24.3365L15.75 24.3833C20.7083 23.5083 24.5 19.1917 24.5 14C24.5 8.225 19.775 3.5 14 3.5C8.225 3.5 3.5 8.225 3.5 14Z" fill="#F20505"/>
</svg>
