<svg width="28" height="28" viewBox="0 0 28 28" fill="none" xmlns="http://www.w3.org/2000/svg">
<path d="M14.0005 3.81812C11.2353 3.81812 10.8883 3.83021 9.8023 3.87963C8.71839 3.92927 7.97853 4.10087 7.33116 4.35266C6.66151 4.61272 6.09347 4.9606 5.52755 5.52675C4.9612 6.09269 4.61333 6.66075 4.35243 7.33021C4.10002 7.97781 3.9282 8.7179 3.87942 9.80142C3.83084 10.8875 3.81812 11.2347 3.81812 13.9999C3.81812 16.7651 3.83042 17.1111 3.87963 18.1972C3.92948 19.2811 4.10108 20.021 4.35264 20.6684C4.61291 21.3381 4.96078 21.9061 5.52691 22.4721C6.09262 23.0384 6.66067 23.3871 7.32989 23.6472C7.97769 23.899 8.71775 24.0706 9.80145 24.1202C10.8875 24.1697 11.2343 24.1817 13.9992 24.1817C16.7645 24.1817 17.1105 24.1697 18.1965 24.1202C19.2804 24.0706 20.0211 23.899 20.6689 23.6472C21.3384 23.3871 21.9056 23.0384 22.4713 22.4721C23.0376 21.9061 23.3855 21.3381 23.6464 20.6686C23.8967 20.021 24.0685 19.2809 24.1194 18.1974C24.1682 17.1113 24.1809 16.7651 24.1809 13.9999C24.1809 11.2347 24.1682 10.8877 24.1194 9.80163C24.0685 8.71769 23.8967 7.97781 23.6464 7.33042C23.3855 6.66075 23.0376 6.09269 22.4713 5.52675C21.9049 4.96039 21.3386 4.61251 20.6683 4.35266C20.0192 4.10087 19.279 3.92927 18.195 3.87963C17.109 3.83021 16.7633 3.81812 13.9973 3.81812H14.0005ZM13.0871 5.65296C13.3582 5.65254 13.6607 5.65296 14.0005 5.65296C16.7189 5.65296 17.0411 5.66272 18.1147 5.71151C19.1074 5.7569 19.6461 5.92278 20.005 6.06215C20.4802 6.24669 20.8189 6.4673 21.175 6.82366C21.5314 7.18002 21.752 7.51942 21.937 7.99457C22.0763 8.35305 22.2424 8.89184 22.2876 9.88457C22.3364 10.9579 22.347 11.2803 22.347 13.9976C22.347 16.7149 22.3364 17.0373 22.2876 18.1106C22.2422 19.1034 22.0763 19.6421 21.937 20.0006C21.7524 20.4758 21.5314 20.8141 21.175 21.1703C20.8187 21.5266 20.4804 21.7472 20.005 21.9318C19.6465 22.0718 19.1074 22.2372 18.1147 22.2826C17.0414 22.3314 16.7189 22.342 14.0005 22.342C11.2818 22.342 10.9596 22.3314 9.8863 22.2826C8.8936 22.2368 8.35483 22.0709 7.99572 21.9316C7.52058 21.747 7.1812 21.5264 6.82484 21.1701C6.46849 20.8137 6.24789 20.4751 6.06293 19.9998C5.92357 19.6413 5.75748 19.1025 5.7123 18.1098C5.66351 17.0364 5.65376 16.714 5.65376 13.9951C5.65376 11.2761 5.66351 10.9554 5.7123 9.88202C5.75769 8.8893 5.92357 8.35051 6.06293 7.9916C6.24747 7.51645 6.46849 7.17705 6.82484 6.82069C7.1812 6.46433 7.52058 6.24372 7.99572 6.05875C8.35461 5.91875 8.8936 5.7533 9.8863 5.70769C10.8255 5.66527 11.1895 5.65254 13.0871 5.65042V5.65296ZM19.4353 7.34357C18.7608 7.34357 18.2135 7.89021 18.2135 8.56496C18.2135 9.23951 18.7608 9.78678 19.4353 9.78678C20.1098 9.78678 20.6571 9.23951 20.6571 8.56496C20.6571 7.89042 20.1098 7.34315 19.4353 7.34315V7.34357ZM14.0005 8.77114C11.113 8.77114 8.77184 11.1123 8.77184 13.9999C8.77184 16.8875 11.113 19.2277 14.0005 19.2277C16.888 19.2277 19.2283 16.8875 19.2283 13.9999C19.2283 11.1123 16.8878 8.77114 14.0003 8.77114H14.0005ZM14.0005 10.606C15.8747 10.606 17.3943 12.1254 17.3943 13.9999C17.3943 15.8742 15.8747 17.3939 14.0005 17.3939C12.126 17.3939 10.6066 15.8742 10.6066 13.9999C10.6066 12.1254 12.126 10.606 14.0005 10.606Z" fill="#F20505"/>
</svg>
