<svg width="28" height="28" viewBox="0 0 28 28" fill="none" xmlns="http://www.w3.org/2000/svg">
<path fill-rule="evenodd" clip-rule="evenodd" d="M23.2436 5.97472C24.2556 6.24717 25.0534 7.04504 25.3259 8.05698C25.8319 9.90572 25.8124 13.7589 25.8124 13.7589C25.8124 13.7589 25.8124 17.5926 25.3259 19.4413C25.0534 20.4532 24.2556 21.2511 23.2436 21.5236C21.3949 22.0101 14 22.0101 14 22.0101C14 22.0101 6.62447 22.0101 4.75627 21.5041C3.74433 21.2317 2.94645 20.4338 2.67401 19.4218C2.1875 17.5926 2.1875 13.7394 2.1875 13.7394C2.1875 13.7394 2.1875 9.90572 2.67401 8.05698C2.94645 7.04504 3.76379 6.2277 4.75627 5.95526C6.60501 5.46875 14 5.46875 14 5.46875C14 5.46875 21.3949 5.46875 23.2436 5.97472ZM17.7947 13.6043L11.6452 17.1461V10.0625L17.7947 13.6043Z" fill="#F20505"/>
</svg>
